<?xml version="1.0" standalone="no"?>
<!DOCTYPE svg PUBLIC "-//W3C//DTD SVG 20010904//EN"
 "http://www.w3.org/TR/2001/REC-SVG-20010904/DTD/svg10.dtd">
<svg version="1.0" xmlns="http://www.w3.org/2000/svg"
 width="512.000000pt" height="512.000000pt" viewBox="0 0 512.000000 512.000000"
 preserveAspectRatio="xMidYMid meet">
<metadata>
Created by potrace 1.11, written by Peter Selinger 2001-2013
</metadata>
<g transform="translate(0.000000,512.000000) scale(0.100000,-0.100000)"
fill="#000000" stroke="none">
<path d="M2059 5112 l-25 -3 -1 -1492 c0 -1612 -1 -1652 -43 -1864 -28 -139
-77 -234 -165 -315 -46 -44 -181 -105 -270 -123 -78 -16 -276 -22 -340 -10
-114 22 -252 76 -240 95 4 7 -4 18 -44 66 -5 7 -7 15 -4 18 4 3 1 6 -6 6 -7 0
-9 5 -6 10 3 5 2 10 -4 10 -6 0 -8 7 -5 15 4 8 1 15 -5 15 -6 0 -11 9 -11 21
0 13 -4 18 -13 13 -7 -5 -6 0 3 11 8 10 10 16 4 12 -7 -4 -15 0 -18 9 -3 8 -2
12 4 9 6 -3 10 -1 10 4 0 6 -4 11 -8 11 -4 0 -8 8 -9 18 -3 45 -8 62 -17 62
-5 0 -1 7 10 15 16 13 16 14 1 9 -13 -5 -16 -2 -10 12 4 10 2 15 -4 11 -5 -3
-10 0 -10 8 0 8 4 12 9 9 4 -3 8 0 8 5 0 6 -6 11 -12 11 -9 0 -8 4 2 10 10 6
11 10 3 10 -7 0 -13 5 -13 11 0 5 4 8 8 5 10 -6 9 30 -1 40 -10 10 -9 26 1 20
5 -3 9 1 9 9 0 8 -4 12 -9 9 -4 -3 -8 2 -8 10 0 8 5 18 11 21 7 5 5 15 -5 31
-15 22 -15 23 1 17 15 -6 16 -4 6 8 -10 12 -10 18 0 29 9 10 9 11 0 6 -7 -4
-13 -2 -13 3 0 6 6 11 13 11 8 0 7 4 -3 11 -12 8 -12 12 -2 16 10 4 9 9 -5 19
-17 13 -17 14 2 7 20 -6 20 -6 1 16 -20 22 -20 22 0 15 17 -7 17 -6 5 9 -9 12
-10 17 -2 17 7 0 9 5 6 10 -4 6 -12 8 -18 4 -7 -3 -5 1 4 8 15 12 15 15 -7 25
-13 6 -22 7 -18 2 3 -5 0 -9 -5 -9 -6 0 -11 5 -11 11 0 6 -7 3 -16 -5 -18 -19
-28 -21 -18 -4 5 8 2 9 -9 5 -14 -5 -17 1 -17 38 l0 45 -266 0 -266 0 5 -272
c5 -303 16 -389 71 -550 66 -195 169 -329 336 -440 44 -29 80 -56 80 -61 0 -4
4 -5 10 -2 6 3 10 1 10 -5 0 -7 7 -10 15 -6 14 5 20 -6 16 -28 -1 -5 6 -3 15
5 15 12 17 12 9 0 -6 -11 -3 -13 13 -9 15 4 19 2 15 -9 -4 -10 1 -13 21 -9 14
2 28 1 31 -4 3 -5 -4 -7 -15 -5 -11 2 -18 0 -15 -6 4 -5 10 -7 14 -5 4 3 13 1
21 -4 9 -5 19 -5 27 1 9 8 11 6 8 -9 -3 -16 1 -19 17 -14 14 3 19 1 14 -6 -4
-7 -1 -12 9 -12 10 0 14 5 10 12 -4 7 1 4 9 -6 16 -19 16 -19 43 5 25 22 26
22 9 1 -11 -12 -17 -23 -15 -25 45 -27 52 -29 46 -15 -3 8 1 15 8 15 8 0 13
-5 12 -11 -3 -16 44 -20 55 -4 8 10 9 9 5 -4 -7 -22 3 -30 20 -17 10 9 17 8
28 -1 12 -10 19 -10 27 -2 7 7 17 12 22 12 6 0 3 -5 -6 -11 -24 -13 -23 -25 1
-25 11 0 17 4 15 8 -3 4 0 8 5 8 6 0 11 -4 11 -10 0 -5 7 -10 15 -10 8 0 15 5
15 11 0 6 7 3 16 -6 14 -13 19 -14 25 -3 7 10 9 10 9 0 0 -10 5 -10 21 -1 15
8 19 8 15 0 -4 -6 -3 -11 3 -11 5 0 13 5 17 12 5 7 11 5 21 -7 13 -18 13 -18
13 1 0 16 2 17 10 4 5 -8 10 -10 10 -5 0 6 4 4 8 -3 10 -16 45 -4 35 12 -5 8
-3 8 8 0 19 -14 51 -26 45 -16 -3 4 24 8 60 8 35 -1 64 1 64 4 0 3 17 4 37 4
21 -1 43 1 48 5 9 5 36 9 93 13 12 1 22 5 22 10 0 4 7 4 17 1 11 -5 14 -3 8 6
-6 10 -3 11 13 2 15 -8 23 -7 30 2 6 7 23 13 39 15 15 1 37 6 48 11 34 16 60
24 68 23 11 -3 9 12 -4 25 -8 8 -7 13 2 18 7 5 10 4 6 -2 -4 -6 0 -16 8 -23
13 -11 19 -7 17 11 -1 4 8 5 18 2 12 -3 20 0 20 6 0 7 8 11 18 9 10 -2 17 3
17 12 0 8 -6 14 -13 12 -8 -1 -11 2 -7 8 4 6 15 4 31 -6 19 -13 24 -14 24 -2
0 7 10 14 23 16 l22 1 0 -414 0 -415 51 0 c28 0 59 -6 70 -14 18 -14 18 -15 1
-22 -15 -5 -16 -9 -5 -15 10 -7 10 -9 -1 -9 -11 0 -9 -4 4 -14 11 -8 24 -11
30 -8 17 11 55 9 55 -2 1 -6 7 0 14 13 11 20 14 21 19 7 5 -11 3 -15 -5 -10
-7 4 -8 3 -4 -5 4 -6 12 -8 18 -4 19 11 78 10 78 -1 0 -6 4 -4 10 4 6 9 5 17
-3 23 -8 6 -7 7 3 4 8 -2 14 -9 13 -15 -3 -15 25 -23 33 -10 5 7 2 8 -6 3 -8
-5 -11 -4 -7 3 4 5 17 8 29 4 16 -4 19 -2 13 8 -5 9 -4 11 4 6 9 -6 9 -11 -1
-24 -11 -14 -10 -15 5 -9 10 4 21 7 23 7 3 0 3 4 0 9 -3 5 2 15 12 22 15 13
16 12 4 -3 -9 -11 -10 -18 -2 -23 5 -3 10 -4 10 -1 0 3 12 1 26 -4 16 -7 23
-7 19 0 -3 6 0 10 9 10 8 0 17 6 20 13 3 6 3 2 0 -10 -4 -18 -2 -22 10 -17 9
3 13 11 9 18 -4 6 0 6 9 -2 22 -17 34 3 16 26 -12 15 -11 16 5 3 10 -8 16 -20
13 -27 -5 -13 18 -27 29 -16 11 11 55 9 55 -2 1 -6 7 0 14 13 11 20 14 21 19
7 5 -11 3 -15 -5 -10 -7 4 -8 3 -4 -5 4 -6 12 -8 18 -4 19 11 78 10 78 -1 0
-6 4 -4 10 4 6 9 5 17 -3 23 -8 6 -7 7 3 4 8 -2 14 -9 13 -15 -3 -15 25 -23
33 -10 5 7 2 8 -6 3 -8 -5 -11 -4 -7 3 4 5 17 8 29 4 16 -4 19 -2 13 8 -5 9
-4 11 4 6 9 -6 9 -11 -1 -24 -11 -14 -10 -15 5 -9 10 4 21 7 23 7 3 0 3 4 0 9
-3 5 2 15 12 22 15 12 16 12 5 -2 -15 -19 -7 -30 15 -22 11 5 13 3 7 -8 -6
-10 -3 -10 11 2 10 9 26 19 34 23 8 4 6 0 -5 -10 -20 -16 -20 -16 2 -11 13 3
25 1 28 -4 3 -4 12 -6 20 -3 8 4 13 10 10 14 -3 5 -1 12 5 15 6 4 9 1 8 -5 -2
-7 7 -16 20 -21 13 -5 21 -5 18 0 -3 5 3 11 13 14 15 4 18 1 14 -12 -5 -13 -2
-12 17 4 13 11 20 15 17 9 -4 -7 3 -11 18 -11 17 0 23 3 18 11 -5 7 0 3 10 -7
9 -11 17 -14 17 -7 0 7 12 9 36 6 24 -4 33 -3 28 5 -4 7 1 7 16 -1 19 -10 22
-10 18 2 -4 9 1 14 16 15 11 0 15 -1 9 -4 -7 -3 -13 -9 -13 -14 0 -6 4 -8 8
-5 5 3 25 6 45 8 20 1 33 6 31 10 -3 4 0 8 5 8 6 0 11 -8 11 -17 0 -15 2 -16
10 -3 5 8 10 11 10 5 0 -5 5 -4 12 3 16 16 31 15 22 0 -6 -10 -5 -10 8 -1 8 7
29 11 47 9 25 -3 31 0 27 11 -4 9 -2 11 6 7 6 -4 22 -8 35 -10 20 -2 23 1 18
19 -5 18 -4 19 4 6 7 -11 20 -15 38 -12 16 2 42 5 60 6 26 1 29 4 20 16 -10
12 -9 12 12 1 21 -11 23 -10 18 3 -4 12 -2 14 11 10 15 -6 16 -5 2 13 -14 18
-14 18 3 5 13 -10 14 -17 7 -27 -9 -10 -7 -11 9 -7 12 3 19 9 16 13 -3 4 2 11
11 14 8 3 13 2 10 -3 -3 -5 1 -11 9 -14 10 -4 12 -1 8 11 -3 9 -3 14 2 10 4
-4 14 0 22 10 8 9 12 11 8 5 -3 -7 -1 -13 4 -13 6 0 11 5 11 11 0 5 5 7 10 4
6 -4 17 -1 25 5 8 7 15 9 15 4 0 -5 4 -2 10 6 5 8 6 19 2 25 -4 6 1 2 11 -8
14 -16 17 -17 17 -3 0 8 6 13 13 10 7 -2 23 5 35 16 12 11 22 17 22 13 0 -4 7
0 15 11 8 10 19 15 26 10 9 -5 10 -2 5 11 -6 16 -4 16 11 4 15 -12 16 -12 10
5 -7 17 -6 17 10 5 11 -9 14 -10 9 -1 -4 7 -2 12 4 12 6 0 8 5 4 12 -4 7 -3 8
4 4 14 -9 53 24 45 38 -4 6 0 5 9 -2 14 -11 16 -11 14 0 -1 7 -6 20 -11 28 -5
9 1 7 15 -5 13 -11 20 -14 16 -7 -4 6 -2 12 4 12 6 0 8 4 5 10 -3 5 0 7 8 4 9
-3 21 4 29 15 8 12 18 18 22 13 4 -4 6 0 4 8 -2 9 3 14 11 12 12 -3 12 0 2 12
-9 11 -9 16 0 22 8 5 9 3 4 -6 -5 -8 -3 -11 6 -8 8 3 13 12 13 21 -1 9 2 15 6
12 4 -2 16 3 26 11 10 9 13 12 5 8 -10 -5 -12 -3 -7 5 5 7 14 10 22 7 8 -3 11
0 7 10 -3 9 1 14 13 14 16 0 17 2 4 10 -13 8 -12 10 3 10 10 0 15 5 12 10 -3
6 -1 10 5 10 7 0 10 6 7 14 -4 10 0 14 14 11 16 -3 17 -1 9 15 -9 16 -7 18 11
15 12 -3 19 -2 15 2 -3 4 1 15 11 25 9 10 14 21 10 24 -3 3 3 16 14 28 11 11
18 29 15 38 -2 10 0 16 5 12 5 -3 9 0 9 6 0 6 5 8 10 5 18 -11 11 4 -12 26
-23 21 -23 21 -1 10 26 -13 36 -14 28 -2 -3 6 3 15 12 21 16 11 16 11 -2 5
-18 -6 -18 -5 2 17 17 18 19 27 11 42 -7 12 -7 17 0 12 5 -3 13 1 16 10 9 23
8 26 -6 19 -7 -4 -5 0 5 8 19 16 35 73 17 62 -5 -3 -10 -1 -10 4 0 6 6 11 13
11 8 0 14 6 15 13 0 6 3 22 6 35 3 12 2 20 -2 18 -5 -3 -9 4 -9 15 -1 11 5 23
13 26 7 3 11 9 8 14 -3 6 0 17 8 26 11 14 11 16 -1 8 -11 -6 -13 -4 -7 11 11
27 14 74 4 74 -4 0 -8 4 -8 10 0 5 8 7 18 4 12 -4 13 -3 4 3 -8 6 -11 23 -8
46 3 27 0 37 -12 40 -13 4 -13 5 3 6 17 1 18 3 5 11 -13 9 -13 10 0 10 13 0
13 1 0 10 -12 8 -13 11 -1 19 11 7 11 9 0 14 -12 4 -11 7 1 16 12 8 12 11 1
11 -8 0 -11 7 -8 20 3 11 2 20 -1 20 -4 0 -7 15 -7 33 1 17 -5 47 -12 64 -7
18 -12 38 -11 45 2 7 -3 12 -11 10 -12 -3 -12 0 -2 12 9 11 9 16 0 22 -8 5
-10 3 -4 -7 5 -8 4 -10 0 -6 -11 10 -16 39 -6 32 4 -2 8 2 8 10 0 8 -5 11 -10
8 -6 -4 -8 3 -4 16 4 18 3 20 -8 11 -15 -13 -16 5 -1 29 6 9 5 12 -1 8 -10 -6
-49 68 -45 86 1 4 -6 7 -16 7 -14 0 -15 2 -2 10 10 6 11 10 3 10 -7 0 -13 6
-13 14 0 8 -5 18 -12 22 -7 5 -8 3 -3 -6 5 -8 4 -11 -3 -6 -6 4 -9 13 -5 21 3
8 0 15 -6 15 -6 0 -11 9 -11 21 0 11 -4 17 -10 14 -9 -5 -11 -1 -10 20 1 10
-25 33 -31 29 -4 -2 -10 3 -13 12 -4 10 -2 13 7 8 9 -5 9 -4 0 6 -14 15 -36 4
-26 -13 4 -7 0 -6 -10 2 -20 16 -22 22 -6 18 6 -1 14 4 17 12 3 10 -1 12 -17
8 -16 -4 -20 -2 -12 6 9 12 -8 47 -24 47 -4 0 -2 -6 4 -14 9 -11 9 -16 0 -22
-7 -4 -9 -3 -5 4 3 6 1 14 -5 17 -5 4 -8 14 -5 24 4 11 2 10 -10 -4 -16 -20
-16 -20 -9 4 6 18 4 22 -6 15 -10 -6 -10 -3 1 11 8 10 10 16 3 12 -6 -4 -18
-1 -26 7 -8 8 -17 12 -21 9 -3 -4 -6 1 -6 10 0 15 -11 22 -32 18 -5 0 -8 7 -8
16 0 9 -3 13 -6 10 -4 -4 -14 1 -23 11 -24 27 -138 106 -199 137 l-52 27 25
24 c14 13 30 24 36 24 14 0 6 24 -10 31 -11 4 -9 7 7 11 12 4 20 2 16 -3 -3
-5 -1 -9 4 -9 5 0 14 12 20 26 7 14 16 23 21 20 5 -4 7 4 4 16 -3 17 -2 19 5
9 6 -8 12 -9 16 -3 3 5 -1 15 -9 22 -8 7 -15 18 -15 24 0 6 5 3 11 -6 5 -10
15 -18 20 -18 6 0 7 5 4 10 -3 6 1 13 9 16 9 3 16 12 16 20 0 8 5 14 11 14 5
0 8 4 4 9 -3 6 2 14 11 19 11 6 15 16 11 26 -4 10 -3 15 3 11 9 -6 14 8 11 28
0 4 3 7 8 7 5 0 12 14 16 30 4 17 11 28 16 24 5 -3 9 0 9 5 0 6 -5 11 -11 11
-6 0 -3 7 6 16 12 13 13 19 4 31 -10 11 -10 14 2 11 8 -2 14 4 14 12 0 8 -6
14 -14 12 -12 -3 -12 0 -1 12 14 18 25 22 15 6 -3 -5 -4 -10 -1 -10 15 0 25
41 16 65 -5 14 -6 24 -1 21 10 -6 23 32 26 76 2 18 -1 25 -9 21 -6 -4 -4 2 4
12 11 14 11 17 1 11 -8 -6 -7 0 4 18 10 14 15 27 11 27 -3 1 -10 2 -15 3 -5 0
-13 5 -18 9 -4 5 -2 7 6 5 22 -5 24 72 2 89 -15 12 -15 13 1 7 13 -4 16 0 14
23 -1 15 -5 33 -8 38 -4 6 -8 36 -10 67 -1 31 -6 54 -10 52 -5 -3 -8 -1 -8 5
0 5 6 12 13 15 6 4 2 4 -11 2 -16 -3 -21 -1 -14 7 12 17 13 57 1 57 -6 0 -8
-4 -5 -9 7 -11 -21 -8 -31 4 -4 4 -3 5 3 2 7 -4 17 0 24 8 10 12 9 15 -6 16
-11 0 -14 3 -6 6 15 6 16 33 1 33 -5 0 -7 -5 -3 -12 4 -7 3 -8 -5 -4 -9 6 -9
11 0 22 9 11 8 14 -2 14 -11 0 -11 2 1 10 12 8 10 10 -10 11 -14 0 -19 3 -12
6 6 2 12 9 12 14 0 6 -4 8 -9 5 -5 -3 -8 6 -8 21 -1 15 -6 29 -12 31 -6 2 -9
7 -6 12 3 5 -2 16 -11 24 -11 12 -12 16 -2 16 8 0 6 5 -5 11 -9 6 -15 14 -12
20 4 5 -1 12 -9 15 -9 3 -13 10 -10 15 3 5 0 9 -5 9 -6 0 -11 -5 -11 -12 0 -6
-3 -8 -6 -5 -4 4 -1 13 6 22 8 10 9 15 1 15 -6 0 -11 5 -11 11 0 17 -63 108
-72 103 -4 -3 -8 2 -8 10 0 9 -4 16 -10 16 -5 0 -10 7 -10 16 0 8 -4 12 -10 9
-5 -3 -10 1 -10 10 0 9 -4 14 -9 10 -5 -3 -12 4 -16 15 -3 11 -13 20 -21 20
-8 0 -14 5 -14 11 0 5 6 7 13 3 8 -5 7 -2 -2 9 -11 14 -17 15 -30 5 -9 -7 -13
-8 -9 -4 4 5 0 15 -10 23 -11 10 -12 12 -2 8 8 -4 6 1 -4 9 -11 9 -24 16 -28
16 -5 0 -19 10 -31 23 -52 53 -195 147 -282 186 -51 23 -180 67 -225 77 -199
42 -379 58 -687 59 -101 0 -183 2 -184 5 -1 3 -2 19 -3 35 0 17 -8 36 -16 43
-13 10 -12 11 5 5 18 -6 19 -5 5 12 -8 10 -10 16 -4 12 13 -8 14 70 1 91 -5 7
-3 12 4 12 8 0 7 5 -2 17 -10 11 -10 14 -1 9 6 -4 12 -3 12 3 0 5 -6 12 -12
14 -10 4 -10 6 0 6 7 1 10 6 7 11 -5 8 -12 7 -23 -2 -15 -12 -16 -11 -3 4 7
10 18 15 23 12 6 -4 8 1 4 14 -12 37 -15 63 -7 58 10 -7 8 65 -2 82 -5 6 -5
12 0 12 4 0 9 18 9 40 1 22 -1 38 -4 35 -3 -3 -11 0 -19 6 -18 15 -17 0 2 -21
13 -14 13 -17 1 -17 -8 0 -14 5 -13 10 2 10 -21 18 -58 21 -18 1 -20 7 -18 44
3 29 -1 42 -9 43 -35 3 -506 4 -529 1z m549 -217 c-3 -3 -9 2 -12 12 -6 14 -5
15 5 6 7 -7 10 -15 7 -18z m79 -17 c-3 -8 -6 -5 -6 6 -1 11 2 17 5 13 3 -3 4
-12 1 -19z m-23 -4 c3 -8 2 -12 -4 -9 -6 3 -10 10 -10 16 0 14 7 11 14 -7z
m-61 -29 c-3 -9 -8 -14 -10 -11 -3 3 -2 9 2 15 9 16 15 13 8 -4z m81 -44 c-7
-8 -54 -9 -49 -1 2 3 15 6 29 6 14 0 23 -2 20 -5z m-54 -40 c0 -6 -4 -12 -8
-15 -5 -3 -9 1 -9 9 0 8 4 15 9 15 4 0 8 -4 8 -9z m-22 -106 c-3 -3 -9 2 -12
12 -6 14 -5 15 5 6 7 -7 10 -15 7 -18z m86 -14 c3 -5 -1 -11 -9 -14 -9 -4 -12
-1 -8 9 6 16 10 17 17 5z m-40 -19 c3 -5 -1 -9 -9 -9 -8 0 -15 4 -15 9 0 4 4
8 9 8 6 0 12 -4 15 -8z m-51 -17 c-3 -9 -8 -14 -10 -11 -3 3 -2 9 2 15 9 16
15 13 8 -4z m12 -65 c-3 -5 -12 -10 -18 -10 -7 0 -6 4 3 10 19 12 23 12 15 0z
m40 0 c3 -6 -1 -7 -9 -4 -18 7 -21 14 -7 14 6 0 13 -4 16 -10z m1647 -595 c3
3 11 -3 19 -12 12 -16 12 -17 -2 -6 -9 7 -18 11 -21 8 -3 -3 -11 3 -19 12 -12
16 -12 17 2 6 9 -7 18 -11 21 -8z m-1011 -82 c13 -16 12 -17 -3 -4 -17 13 -22
21 -14 21 2 0 10 -8 17 -17z m1044 -3 c-3 -5 -12 -10 -18 -10 -7 0 -6 4 3 10
19 12 23 12 15 0z m-1351 -18 c3 -5 -1 -9 -9 -9 -8 0 -12 4 -9 9 3 4 7 8 9 8
2 0 6 -4 9 -8z m300 -3 c3 -3 -5 -5 -19 -5 -13 0 -22 3 -19 7 4 8 30 6 38 -2z
m121 2 c3 -5 2 -12 -3 -15 -5 -3 -9 1 -9 9 0 17 3 19 12 6z m-310 -22 c-3 -4
2 -10 11 -13 8 -3 12 -2 9 4 -10 17 12 11 31 -7 17 -17 17 -17 12 3 -3 13 -1
21 8 21 7 0 11 -4 9 -8 -3 -4 3 -10 12 -14 10 -3 19 -1 21 4 3 8 10 8 23 1 14
-8 19 -7 19 1 0 8 5 7 17 -2 13 -11 17 -11 20 -1 3 6 10 9 16 5 6 -4 22 -8 35
-9 17 -2 21 0 13 9 -7 9 -5 13 8 13 10 0 17 -6 14 -12 -2 -7 0 -15 6 -19 6 -3
11 0 11 7 0 9 3 9 10 -2 6 -10 10 -11 10 -2 0 6 5 12 11 12 5 0 8 -4 5 -8 -3
-5 8 -9 25 -10 17 0 36 -6 44 -12 9 -7 15 -8 19 -1 8 12 56 -7 56 -22 0 -6 3
-8 6 -4 12 12 82 -32 121 -77 47 -53 87 -133 110 -218 24 -88 24 -328 0 -417
-81 -298 -299 -431 -704 -431 -69 0 -92 3 -90 13 1 6 -4 11 -11 9 -8 -1 -11 2
-7 7 3 6 13 7 23 4 15 -6 16 -5 2 12 -12 14 -12 19 -2 23 10 3 8 8 -5 19 -10
8 -12 12 -5 8 7 -4 12 0 12 9 0 9 -5 16 -12 16 -6 0 -4 6 7 13 11 9 14 16 7
20 -5 4 -8 17 -5 30 4 18 3 19 -6 7 -6 -8 -11 -11 -11 -6 0 5 7 17 16 27 12
13 12 19 3 25 -8 5 -10 3 -4 -7 8 -12 6 -12 -8 0 -9 7 -17 19 -17 25 0 8 3 7
8 -1 5 -8 13 -9 22 -3 8 6 10 10 4 10 -17 0 -25 28 -12 36 7 5 8 2 3 -6 -5 -8
-4 -11 3 -6 13 8 5 36 -10 33 -6 -1 -13 5 -15 13 -3 10 -2 11 4 3 6 -8 14 -9
23 -3 8 6 10 10 4 10 -11 0 -12 60 0 78 4 7 0 15 -9 18 -14 6 -14 8 1 19 11 7
13 14 6 18 -5 4 -8 17 -5 30 4 18 3 19 -6 7 -6 -8 -11 -11 -11 -6 0 5 7 17 16
27 12 13 12 19 3 25 -8 5 -10 3 -4 -7 8 -12 6 -12 -8 0 -9 7 -17 19 -17 25 0
8 3 7 8 -1 5 -8 13 -9 22 -3 8 6 10 10 4 10 -11 0 -12 60 0 78 4 7 0 15 -9 18
-14 6 -14 8 1 19 9 6 13 14 8 18 -11 6 -11 88 0 105 4 7 0 15 -9 19 -16 5 -16
7 -1 15 9 5 13 14 10 20 -12 18 -13 72 -3 85 7 7 6 14 -2 19 -7 4 -9 3 -6 -2
3 -5 -3 -10 -14 -10 -16 0 -15 3 8 22 20 16 23 23 13 29 -9 6 -11 4 -5 -5 6
-9 4 -11 -5 -5 -10 6 -9 11 5 22 11 7 13 13 6 13 -7 0 -9 5 -5 12 5 8 2 9 -12
4 -16 -6 -16 -4 3 16 21 22 19 52 -3 48 -5 -1 -10 4 -12 12 -3 10 -1 10 5 1 6
-8 14 -9 23 -3 8 6 10 10 5 10 -6 0 -10 15 -10 34 0 25 3 32 12 25 7 -7 12 -6
15 2 3 8 10 5 23 -7 18 -19 19 -19 13 2 -3 13 -1 21 8 21 7 0 11 -4 9 -8z
m-108 -26 c0 -9 -4 -10 -14 -2 -7 6 -13 12 -13 14 0 1 6 2 13 2 8 0 14 -6 14
-14z m1382 -17 c-3 -3 -11 5 -18 17 -13 21 -12 21 5 5 10 -10 16 -20 13 -22z
m-1443 -1 c-1 -8 -5 -17 -8 -21 -5 -4 -4 16 1 34 3 9 9 -1 7 -13z m1481 -9 c0
-8 -5 -14 -11 -13 -6 1 -10 -4 -8 -11 1 -8 -2 -11 -8 -7 -8 5 -6 13 6 26 21
23 21 23 21 5z m-1432 -5 c-9 -8 -36 -10 -30 -2 2 4 11 8 20 8 8 0 13 -3 10
-6z m1455 -25 c0 -2 -8 -10 -17 -17 -16 -13 -17 -12 -4 4 13 16 21 21 21 13z
m-1502 -41 c-3 -3 -9 2 -12 12 -6 14 -5 15 5 6 7 -7 10 -15 7 -18z m1496 -14
c-8 -8 -34 -10 -38 -2 -3 4 6 7 19 7 14 0 22 -2 19 -5z m-1450 -19 c3 -5 -1
-9 -9 -9 -8 0 -15 4 -15 9 0 4 4 8 9 8 6 0 12 -4 15 -8z m-51 -17 c-3 -9 -8
-14 -10 -11 -3 3 -2 9 2 15 9 16 15 13 8 -4z m1547 -46 c0 -5 -4 -9 -8 -9 -5
0 -9 7 -9 15 0 8 4 12 9 9 4 -3 8 -9 8 -15z m4 -41 c-4 -5 -9 -7 -12 -4 -3 3
-12 0 -21 -7 -14 -10 -14 -10 -4 4 13 16 46 23 37 7z m-1520 -40 c-3 -4 -9 -8
-15 -8 -5 0 -9 4 -9 8 0 5 7 9 15 9 8 0 12 -4 9 -9z m26 -34 c0 -8 -19 -13
-24 -6 -3 5 1 9 9 9 8 0 15 -2 15 -3z m2 -38 c3 3 8 1 12 -4 11 -18 -25 -8
-41 12 -18 21 -18 21 3 3 11 -9 23 -14 26 -11z m1488 -26 c0 -5 -5 -10 -11
-10 -5 0 -7 5 -4 10 3 6 8 10 11 10 2 0 4 -4 4 -10z m-1465 -19 c3 -5 2 -12
-3 -15 -5 -3 -9 1 -9 9 0 17 3 19 12 6z m-70 -21 c-3 -5 -12 -10 -18 -10 -7 0
-6 4 3 10 19 12 23 12 15 0z m1550 0 c3 -5 1 -10 -4 -10 -6 0 -11 5 -11 10 0
6 2 10 4 10 3 0 8 -4 11 -10z m40 -8 c-3 -3 -11 0 -18 7 -9 10 -8 11 6 5 10
-3 15 -9 12 -12z m-1538 -19 c0 -9 -4 -10 -14 -2 -7 6 -13 12 -13 14 0 1 6 2
13 2 8 0 14 -6 14 -14z m-7 -29 c0 -8 -19 -13 -24 -6 -3 5 1 9 9 9 8 0 15 -2
15 -3z m3 -37 c4 3 7 4 7 0 0 -17 -20 -14 -36 6 -19 22 -19 22 2 4 11 -9 24
-14 27 -10z m1542 -26 c3 -5 2 -12 -3 -15 -5 -3 -9 1 -9 9 0 17 3 19 12 6z
m-1520 -20 c3 -5 2 -12 -3 -15 -5 -3 -9 1 -9 9 0 17 3 19 12 6z m-77 -31 c-7
-10 -14 -17 -17 -15 -4 4 18 35 25 35 2 0 -1 -9 -8 -20z m39 -2 c2 -17 0 -19
-7 -8 -5 8 -6 18 -4 22 8 12 10 10 11 -14z m1577 -18 c-6 -6 -10 -3 -10 10 0
13 4 16 10 10 7 -7 7 -13 0 -20z m-40 8 c-3 -4 -11 -5 -19 -1 -21 7 -19 12 4
10 11 0 18 -5 15 -9z m3 -33 c0 -8 -4 -15 -9 -15 -10 0 -11 14 -1 23 9 10 10
9 10 -8z m-1579 -30 c-3 -3 -9 2 -12 12 -6 14 -5 15 5 6 7 -7 10 -15 7 -18z
m1552 9 c0 -8 -19 -13 -24 -6 -3 5 1 9 9 9 8 0 15 -2 15 -3z m-1496 -30 c3 -8
2 -12 -4 -9 -6 3 -10 10 -10 16 0 14 7 11 14 -7z m-61 -29 c-3 -9 -8 -14 -10
-11 -3 3 -2 9 2 15 9 16 15 13 8 -4z m1584 -12 c0 -9 -4 -10 -14 -2 -7 6 -13
12 -13 14 0 1 6 2 13 2 8 0 14 -6 14 -14z m-1522 -32 c-9 -8 -36 -10 -30 -2 2
4 11 8 20 8 8 0 13 -3 10 -6z m1520 -1 c4 -6 1 -9 -7 -8 -7 2 -13 -4 -13 -12
0 -8 5 -15 12 -15 6 0 14 -3 18 -7 4 -3 0 -5 -9 -4 -28 4 -41 23 -26 41 15 18
17 18 25 5z m39 -18 c3 -5 -1 -9 -9 -9 -8 0 -12 4 -9 9 3 4 7 8 9 8 2 0 6 -4
9 -8z m-1594 -21 c0 -6 -4 -12 -8 -15 -5 -3 -9 1 -9 9 0 8 4 15 9 15 4 0 8 -4
8 -9z m55 0 c3 -5 2 -12 -3 -15 -5 -3 -9 1 -9 9 0 17 3 19 12 6z m1441 -6 c-3
-23 -12 -26 -13 -5 -1 11 2 20 7 20 4 0 7 -7 6 -15z m-1518 -100 c-3 -3 -9 2
-12 12 -6 14 -5 15 5 6 7 -7 10 -15 7 -18z m1518 -9 c0 -14 -3 -23 -7 -20 -6
3 -6 22 0 42 3 10 7 -2 7 -22z m39 14 c3 -5 1 -10 -4 -10 -6 0 -11 5 -11 10 0
6 2 10 4 10 3 0 8 -4 11 -10z m-1521 -18 c3 -5 -1 -9 -9 -9 -8 0 -12 4 -9 9 3
4 7 8 9 8 2 0 6 -4 9 -8z m1526 -16 c0 -2 -7 -7 -16 -10 -8 -3 -12 -2 -9 4 6
10 25 14 25 6z m-1562 -51 c-3 -3 -9 2 -12 12 -6 14 -5 15 5 6 7 -7 10 -15 7
-18z m56 -21 c3 -8 2 -12 -4 -9 -6 3 -10 10 -10 16 0 14 7 11 14 -7z m1461 7
c3 -5 2 -12 -3 -15 -5 -3 -9 1 -9 9 0 17 3 19 12 6z m-1522 -36 c-3 -9 -8 -14
-10 -11 -3 3 -2 9 2 15 9 16 15 13 8 -4z m1527 -4 c0 -6 -4 -12 -8 -15 -5 -3
-9 1 -9 9 0 8 4 15 9 15 4 0 8 -4 8 -9z m-36 -19 c3 -5 -1 -9 -9 -9 -8 0 -12
4 -9 9 3 4 7 8 9 8 2 0 6 -4 9 -8z m-84 -22 c0 -5 -5 -10 -11 -10 -5 0 -7 5
-4 10 3 6 8 10 11 10 2 0 4 -4 4 -10z m5 -40 c3 -6 -1 -7 -9 -4 -18 7 -21 14
-7 14 6 0 13 -4 16 -10z m80 0 c3 -6 -1 -7 -9 -4 -18 7 -21 14 -7 14 6 0 13
-4 16 -10z m-121 -18 c3 -5 -1 -9 -9 -9 -8 0 -12 4 -9 9 3 4 7 8 9 8 2 0 6 -4
9 -8z m-1304 -6 c0 -2 -8 -10 -17 -17 -16 -13 -17 -12 -4 4 13 16 21 21 21 13z
m1357 -11 c0 -8 -4 -15 -9 -15 -10 0 -11 14 -1 23 9 10 10 9 10 -8z m-1417 -5
c0 -5 -2 -10 -4 -10 -3 0 -8 5 -11 10 -3 6 -1 10 4 10 6 0 11 -4 11 -10z
m1405 -40 c3 -6 -1 -7 -9 -4 -18 7 -21 14 -7 14 6 0 13 -4 16 -10z m-126 -53
c8 -10 7 -14 -2 -14 -8 0 -14 6 -14 14 0 7 1 13 2 13 2 0 8 -6 14 -13z m38 -2
c0 -8 -4 -12 -9 -9 -5 3 -6 10 -3 15 9 13 12 11 12 -6z m78 6 c3 -5 2 -12 -3
-15 -5 -3 -9 1 -9 9 0 17 3 19 12 6z m-140 -70 c3 -5 2 -12 -3 -15 -5 -3 -9 1
-9 9 0 17 3 19 12 6z m25 -37 c0 -8 -19 -13 -24 -6 -3 5 1 9 9 9 8 0 15 -2 15
-3z m-3445 -284 c3 -5 1 -10 -4 -10 -6 0 -11 5 -11 10 0 6 2 10 4 10 3 0 8 -4
11 -10z m49 -22 c-3 -4 -9 -8 -15 -8 -5 0 -9 4 -9 8 0 5 7 9 15 9 8 0 12 -4 9
-9z m-49 -7 c3 -5 2 -12 -3 -15 -5 -3 -9 1 -9 9 0 17 3 19 12 6z m2409 -89 c3
-5 -1 -9 -9 -9 -8 0 -12 4 -9 9 3 4 7 8 9 8 2 0 6 -4 9 -8z m72 -4 c4 -7 4
-10 -1 -6 -4 4 -15 2 -24 -5 -14 -11 -14 -10 -2 6 16 20 18 21 27 5z m59 2 c3
-5 1 -10 -4 -10 -6 0 -11 5 -11 10 0 6 2 10 4 10 3 0 8 -4 11 -10z m-259 -20
c0 -12 -4 -16 -9 -11 -5 5 -6 14 -3 20 10 15 12 14 12 -9z m324 0 c0 -5 -2
-10 -4 -10 -3 0 -8 5 -11 10 -3 6 -1 10 4 10 6 0 11 -4 11 -10z m-185 -10
c-14 -22 15 -36 70 -35 30 0 55 -4 55 -9 0 -5 7 -1 15 10 8 11 15 14 15 7 0
-7 5 -13 11 -13 5 0 8 4 5 8 -3 5 1 9 9 9 8 0 12 -4 9 -9 -3 -4 2 -8 11 -8 9
0 13 5 10 10 -3 6 -1 10 4 10 6 0 11 -4 11 -8 0 -12 43 -12 57 0 10 8 12 7 7
-6 -5 -12 -2 -15 10 -10 9 3 14 9 12 13 -2 3 6 6 19 6 13 0 21 -3 19 -7 -2 -4
0 -9 6 -13 5 -3 10 0 10 7 1 8 7 5 17 -7 l16 -20 -7 20 c-6 16 -5 18 5 8 15
-15 33 -17 24 -3 -3 6 1 7 9 4 9 -3 16 -11 16 -18 0 -6 5 -4 10 4 9 13 10 13
10 0 0 -13 1 -13 10 0 5 8 10 10 10 4 0 -7 7 -15 16 -18 11 -4 15 -2 11 7 -3
8 1 14 8 14 8 0 11 -7 7 -15 -3 -10 -1 -13 7 -8 6 4 18 2 26 -4 12 -10 15 -10
15 1 0 9 3 10 8 4 11 -15 42 -18 57 -5 9 8 15 8 20 0 4 -6 2 -9 -3 -8 -6 2 -9
-1 -8 -7 0 -5 9 -9 19 -9 9 1 17 -2 17 -6 0 -4 9 -10 20 -13 11 -3 18 -1 14 4
-3 5 2 6 10 3 9 -3 13 -10 10 -15 -3 -5 2 -6 10 -3 9 3 16 1 16 -4 0 -6 9 -13
19 -17 56 -18 167 -173 203 -285 27 -86 33 -250 12 -340 -49 -211 -195 -374
-402 -446 -152 -53 -253 -65 -542 -69 -200 -2 -265 3 -226 18 10 4 14 12 10
19 -11 17 -11 99 0 105 5 4 1 12 -8 18 -15 11 -15 13 -1 19 9 3 13 11 9 18
-11 18 -13 72 -3 85 7 7 6 14 -2 19 -7 4 -9 3 -6 -2 3 -5 -3 -10 -14 -10 -16
0 -15 3 8 22 20 16 23 23 13 29 -9 6 -11 4 -5 -5 6 -9 4 -11 -5 -5 -10 6 -9
11 5 22 11 7 13 13 6 13 -7 0 -9 5 -5 12 5 8 2 9 -12 4 -16 -6 -16 -4 3 16 21
22 19 52 -3 48 -5 -1 -10 4 -12 12 -3 10 -1 10 5 1 6 -8 14 -9 23 -3 8 6 10
10 4 10 -11 0 -12 60 0 78 4 7 0 15 -9 18 -14 6 -14 8 1 19 11 7 13 14 6 18
-5 4 -8 17 -5 30 4 18 3 19 -6 7 -6 -8 -11 -11 -11 -6 0 5 7 17 16 27 12 13
12 19 3 25 -8 5 -10 3 -4 -7 8 -12 6 -12 -8 0 -9 7 -17 19 -17 25 0 8 3 7 8
-1 5 -8 13 -9 22 -3 8 6 10 10 5 10 -14 0 -17 41 -4 56 7 8 6 15 -2 20 -7 4
-9 3 -6 -2 3 -5 -3 -10 -14 -10 -16 0 -15 3 8 22 20 16 23 23 13 29 -9 6 -11
4 -5 -5 6 -9 4 -11 -5 -5 -10 6 -9 11 5 22 11 7 13 13 6 13 -7 0 -9 5 -5 12 5
7 2 9 -8 6 -8 -4 -15 -1 -15 7 0 7 6 11 13 8 8 -3 11 5 10 27 -1 17 2 34 7 37
6 3 3 11 -7 18 -15 11 -15 13 -1 19 10 3 13 11 9 18 -11 17 -11 99 0 105 5 4
1 12 -8 18 -15 11 -15 13 -1 19 10 3 13 11 9 18 -10 16 -10 50 -1 65 4 7 0 16
-9 21 -15 8 -15 10 0 15 10 4 15 3 11 -3 -3 -6 -1 -10 4 -10 6 0 11 6 12 13 0
10 2 10 6 0 2 -7 9 -13 14 -13 6 0 7 6 2 13 -4 6 5 4 19 -5 15 -10 29 -14 33
-9 3 5 21 8 41 6 28 -2 33 -1 24 11 -11 12 -6 34 6 34 3 0 2 -5 -1 -10z m259
-19 c-2 -3 -12 3 -22 13 -16 17 -16 18 5 5 12 -7 20 -15 17 -18z m-484 13 c0
-8 -19 -13 -24 -6 -3 5 1 9 9 9 8 0 15 -2 15 -3z m45 -3 c-9 -8 -36 -10 -30
-2 2 4 11 8 20 8 8 0 13 -3 10 -6z m150 -1 c3 -6 -1 -7 -9 -4 -18 7 -21 14 -7
14 6 0 13 -4 16 -10z m92 -12 c-3 -8 -6 -5 -6 6 -1 11 2 17 5 13 3 -3 4 -12 1
-19z m68 13 c-9 -8 -36 -10 -30 -2 2 4 11 8 20 8 8 0 13 -3 10 -6z m455 -25
c0 -2 -6 -9 -14 -15 -11 -9 -16 -9 -22 0 -4 7 -3 9 4 5 6 -3 13 -2 17 4 6 10
15 14 15 6z m971 -23 c13 -17 13 -17 -6 -3 -11 8 -22 16 -24 17 -2 2 0 3 6 3
6 0 17 -8 24 -17z m-1813 -18 c-3 -3 -9 2 -12 12 -6 14 -5 15 5 6 7 -7 10 -15
7 -18z m-2168 -11 c0 -8 -19 -13 -24 -6 -3 5 1 9 9 9 8 0 15 -2 15 -3z m2221
-11 c12 -16 12 -17 -2 -5 -9 7 -25 10 -35 6 -16 -5 -16 -4 -4 5 20 15 25 14
41 -6z m1787 -38 c-3 -3 -9 2 -12 12 -6 14 -5 15 5 6 7 -7 10 -15 7 -18z
m-3958 5 c0 -5 -5 -10 -11 -10 -5 0 -7 5 -4 10 3 6 8 10 11 10 2 0 4 -4 4 -10z
m2170 4 c0 -8 -19 -13 -24 -6 -3 5 1 9 9 9 8 0 15 -2 15 -3z m2 -38 c3 3 8 1
12 -4 11 -18 -25 -8 -41 12 -18 21 -18 21 3 3 11 -9 23 -14 26 -11z m1821 -16
c10 -12 9 -12 -4 -2 -9 6 -18 9 -21 6 -3 -3 -9 -1 -12 4 -9 15 22 8 37 -8z
m24 -25 c0 -8 -4 -15 -9 -15 -10 0 -11 14 -1 23 9 10 10 9 10 -8z m-1822 -4
c3 -5 2 -12 -3 -15 -5 -3 -9 1 -9 9 0 17 3 19 12 6z m-70 -21 c-3 -5 -12 -10
-18 -10 -7 0 -6 4 3 10 19 12 23 12 15 0z m52 -27 c0 -9 -4 -10 -14 -2 -7 6
-13 12 -13 14 0 1 6 2 13 2 8 0 14 -6 14 -14z m-7 -29 c0 -8 -19 -13 -24 -6
-3 5 1 9 9 9 8 0 15 -2 15 -3z m3 -37 c4 3 7 4 7 0 0 -17 -20 -14 -36 6 -19
22 -19 22 2 4 11 -9 24 -14 27 -10z m-2178 -26 c3 -5 2 -12 -3 -15 -5 -3 -9 1
-9 9 0 17 3 19 12 6z m2200 -20 c3 -5 2 -12 -3 -15 -5 -3 -9 1 -9 9 0 17 3 19
12 6z m-2155 -23 c0 -4 -4 -8 -9 -8 -6 0 -12 4 -15 8 -3 5 1 9 9 9 8 0 15 -4
15 -9z m2081 -1 c-6 -8 -7 -18 -3 -22 4 -5 1 -5 -6 -1 -10 6 -10 11 -1 22 6 8
14 14 16 14 3 0 0 -6 -6 -13z m36 -2 c0 -8 -4 -12 -9 -9 -5 3 -6 10 -3 15 9
13 12 11 12 -6z m1883 5 c0 -5 -2 -10 -4 -10 -3 0 -8 5 -11 10 -3 6 -1 10 4
10 6 0 11 -4 11 -10z m55 -19 c3 -5 2 -12 -3 -15 -5 -3 -9 1 -9 9 0 17 3 19
12 6z m-1931 -19 c3 -5 -1 -9 -9 -9 -8 0 -15 4 -15 9 0 4 4 8 9 8 6 0 12 -4
15 -8z m-51 -17 c-3 -9 -8 -14 -10 -11 -3 3 -2 9 2 15 9 16 15 13 8 -4z m2007
-10 c0 -2 -9 -3 -19 -2 -11 0 -18 5 -15 9 4 6 34 0 34 -7z m-56 -33 c3 -5 -1
-9 -9 -9 -8 0 -12 4 -9 9 3 4 7 8 9 8 2 0 6 -4 9 -8z m-3964 -67 c0 -5 -5 -3
-10 5 -5 8 -10 20 -10 25 0 6 5 3 10 -5 5 -8 10 -19 10 -25z m2056 -17 c3 -4
-1 -5 -10 -4 -8 1 -18 5 -22 8 -3 4 1 5 10 4 8 -1 18 -5 22 -8z m1924 -14 c0
-8 -19 -13 -24 -6 -3 5 1 9 9 9 8 0 15 -2 15 -3z m-1962 -49 c-3 -3 -9 2 -12
12 -6 14 -5 15 5 6 7 -7 10 -15 7 -18z m1955 10 c-3 -9 -8 -14 -10 -11 -3 3
-2 9 2 15 9 16 15 13 8 -4z m-1899 -31 c3 -8 2 -12 -4 -9 -6 3 -10 10 -10 16
0 14 7 11 14 -7z m1941 -3 c3 -5 2 -12 -3 -15 -5 -3 -9 1 -9 9 0 17 3 19 12 6z
m-2002 -26 c-3 -9 -8 -14 -10 -11 -3 3 -2 9 2 15 9 16 15 13 8 -4z m62 -44
c-9 -8 -36 -10 -30 -2 2 4 11 8 20 8 8 0 13 -3 10 -6z m-35 -40 c0 -6 -4 -12
-8 -15 -5 -3 -9 1 -9 9 0 8 4 15 9 15 4 0 8 -4 8 -9z m55 0 c3 -5 2 -12 -3
-15 -5 -3 -9 1 -9 9 0 17 3 19 12 6z m1929 1 c3 -5 -1 -9 -9 -9 -8 0 -12 4 -9
9 3 4 7 8 9 8 2 0 6 -4 9 -8z m9 -37 c-3 -9 -8 -14 -10 -11 -3 3 -2 9 2 15 9
16 15 13 8 -4z m12 -25 c-3 -5 -12 -10 -18 -10 -7 0 -6 4 3 10 19 12 23 12 15
0z m-86 -13 c8 -10 7 -14 -2 -14 -8 0 -14 6 -14 14 0 7 1 13 2 13 2 0 8 -6 14
-13z m-1941 -32 c-3 -3 -9 2 -12 12 -6 14 -5 15 5 6 7 -7 10 -15 7 -18z m1992
-11 c0 -8 -19 -13 -24 -6 -3 5 1 9 9 9 8 0 15 -2 15 -3z m-1946 -22 c3 -5 -1
-9 -9 -9 -8 0 -15 4 -15 9 0 4 4 8 9 8 6 0 12 -4 15 -8z m1913 -9 c0 -9 -4
-10 -14 -2 -7 6 -13 12 -13 14 0 1 6 2 13 2 8 0 14 -6 14 -14z m-1964 -8 c-3
-9 -8 -14 -10 -11 -3 3 -2 9 2 15 9 16 15 13 8 -4z m1924 0 c0 -8 -4 -12 -9
-9 -5 3 -6 10 -3 15 9 13 12 11 12 -6z m-2680 -60 c0 -8 -4 -12 -9 -9 -5 3 -6
10 -3 15 9 13 12 11 12 -6z m54 -32 c12 -16 12 -17 -2 -6 -9 7 -20 9 -24 5 -5
-4 -5 -1 -1 6 9 16 11 15 27 -5z m2629 -15 c0 -4 -4 -8 -9 -8 -6 0 -12 4 -15
8 -3 5 1 9 9 9 8 0 15 -4 15 -9z m-2745 -17 c3 -5 2 -12 -3 -15 -5 -3 -9 1 -9
9 0 17 3 19 12 6z m79 -7 c3 -8 2 -12 -4 -9 -6 3 -10 10 -10 16 0 14 7 11 14
-7z m770 4 c-3 -4 -9 -8 -15 -8 -5 0 -9 4 -9 8 0 5 7 9 15 9 8 0 12 -4 9 -9z
m1850 -17 c3 -5 -2 -15 -12 -22 -15 -12 -16 -12 -5 2 7 9 10 19 6 22 -3 4 -4
7 0 7 3 0 8 -4 11 -9z m111 -1 c-3 -5 -12 -10 -18 -10 -7 0 -6 4 3 10 19 12
23 12 15 0z m-2785 -21 c0 -4 -9 -7 -19 -6 -11 0 -18 4 -16 7 6 9 35 8 35 -1z
m850 5 c0 -8 -19 -13 -24 -6 -3 5 1 9 9 9 8 0 15 -2 15 -3z m2 -38 c3 3 8 1
12 -4 11 -18 -25 -8 -41 12 -18 21 -18 21 3 3 11 -9 23 -14 26 -11z m-1038 -4
c3 -5 -1 -9 -9 -9 -8 0 -12 4 -9 9 3 4 7 8 9 8 2 0 6 -4 9 -8z m96 4 c0 -2 -8
-10 -17 -17 -16 -13 -17 -12 -4 4 13 16 21 21 21 13z m-272 -51 c-3 -3 -9 2
-12 12 -6 14 -5 15 5 6 7 -7 10 -15 7 -18z m125 11 c11 1 16 0 13 -4 -13 -12
-36 -10 -48 6 -11 15 -11 15 2 6 8 -6 23 -10 33 -8z m2993 2 c5 4 5 3 1 -2
-12 -15 -34 -15 -34 0 0 9 4 11 12 4 7 -5 16 -6 21 -2z m-2939 -15 c0 -9 -4
-10 -14 -2 -7 6 -13 12 -13 14 0 1 6 2 13 2 8 0 14 -6 14 -14z m1058 8 c3 -5
2 -12 -3 -15 -5 -3 -9 1 -9 9 0 17 3 19 12 6z m-1010 -11 c-3 -5 -12 -10 -18
-10 -7 0 -6 4 3 10 19 12 23 12 15 0z m-272 -25 c-7 -21 -12 -19 -10 4 0 11 5
18 9 15 4 -3 5 -11 1 -19z m38 8 c13 -16 12 -17 -3 -4 -17 13 -22 21 -14 21 2
0 10 -8 17 -17z m1174 7 c-3 -5 -12 -10 -18 -10 -7 0 -6 4 3 10 19 12 23 12
15 0z m-1765 -20 c0 -5 -2 -10 -4 -10 -3 0 -8 5 -11 10 -3 6 -1 10 4 10 6 0
11 -4 11 -10z m120 1 c0 -6 -4 -12 -8 -15 -5 -3 -9 1 -9 9 0 8 4 15 9 15 4 0
8 -4 8 -9z m266 -3 c3 -4 -1 -5 -10 -4 -8 1 -18 5 -22 8 -3 4 1 5 10 4 8 -1
18 -5 22 -8z m131 5 c-4 -3 -1 -13 6 -22 11 -14 10 -14 -5 -2 -16 12 -16 31
-1 31 4 0 3 -3 0 -7z m1300 -10 c0 -9 -4 -10 -14 -2 -7 6 -13 12 -13 14 0 1 6
2 13 2 8 0 14 -6 14 -14z m1757 9 c3 -5 -1 -9 -9 -9 -8 0 -12 4 -9 9 3 4 7 8
9 8 2 0 6 -4 9 -8z m-3097 -17 c0 -8 -4 -12 -9 -9 -5 3 -6 10 -3 15 9 13 12
11 12 -6z m-313 -3 c3 -5 -1 -9 -9 -9 -8 0 -15 4 -15 9 0 4 4 8 9 8 6 0 12 -4
15 -8z m3432 -16 c0 -14 -3 -23 -7 -20 -6 3 -6 22 0 42 3 10 7 -2 7 -22z
m-3216 -6 c0 -5 -2 -10 -4 -10 -3 0 -8 5 -11 10 -3 6 -1 10 4 10 6 0 11 -4 11
-10z m1430 4 c0 -8 -19 -13 -24 -6 -3 5 1 9 9 9 8 0 15 -2 15 -3z m1824 -3 c3
-5 -2 -15 -12 -22 -15 -12 -16 -12 -5 2 7 9 10 19 6 22 -3 4 -4 7 0 7 3 0 8
-4 11 -9z m-1843 -28 c13 -16 12 -17 -3 -4 -10 7 -18 15 -18 17 0 8 8 3 21
-13z m1744 -21 c-3 -3 -11 0 -18 7 -9 10 -8 11 6 5 10 -3 15 -9 12 -12z m-11
-54 c-3 -4 -9 -8 -15 -8 -5 0 -9 4 -9 8 0 5 7 9 15 9 8 0 12 -4 9 -9z m91 -7
c3 -5 2 -12 -3 -15 -5 -3 -9 1 -9 9 0 17 3 19 12 6z m-38 -18 c0 -8 -4 -10
-12 -3 -7 5 -16 6 -20 2 -5 -4 -5 -2 -2 4 9 15 34 13 34 -3z m-22 -33 c3 -5 1
-10 -4 -10 -6 0 -11 5 -11 10 0 6 2 10 4 10 3 0 8 -4 11 -10z m-78 -65 c0 -8
-4 -12 -9 -9 -5 3 -6 10 -3 15 9 13 12 11 12 -6z m-97 1 c0 -2 -8 -10 -17 -17
-16 -13 -17 -12 -4 4 13 16 21 21 21 13z m24 -38 c-3 -4 -9 -8 -15 -8 -5 0 -9
4 -9 8 0 5 7 9 15 9 8 0 12 -4 9 -9z m31 -7 c3 -5 2 -12 -3 -15 -5 -3 -9 1 -9
9 0 17 3 19 12 6z m-75 -29 c0 -5 -7 -9 -15 -9 -8 0 -12 4 -9 9 3 4 9 8 15 8
5 0 9 -4 9 -8z m-56 -20 c3 -5 -1 -9 -9 -9 -8 0 -12 4 -9 9 3 4 7 8 9 8 2 0 6
-4 9 -8z m91 -41 c-9 -8 -36 -10 -30 -2 2 4 11 8 20 8 8 0 13 -3 10 -6z m-161
-42 c3 -3 -5 -5 -19 -5 -13 0 -22 3 -19 7 4 8 30 6 38 -2z m66 2 c0 -6 -4 -12
-8 -15 -5 -3 -9 1 -9 9 0 8 4 15 9 15 4 0 8 -4 8 -9z m-120 -41 c0 -5 -5 -10
-11 -10 -5 0 -7 5 -4 10 3 6 8 10 11 10 2 0 4 -4 4 -10z m31 -7 c13 -16 12
-17 -3 -4 -17 13 -22 21 -14 21 2 0 10 -8 17 -17z m-114 -28 c0 -8 -4 -15 -9
-15 -10 0 -11 14 -1 23 9 10 10 9 10 -8z m107 -7 c-3 -4 -9 -8 -15 -8 -5 0 -9
4 -9 8 0 5 7 9 15 9 8 0 12 -4 9 -9z m-124 -52 c0 -2 -7 -7 -16 -10 -8 -3 -12
-2 -9 4 6 10 25 14 25 6z m-164 -28 c4 -7 4 -10 -1 -6 -4 4 -15 2 -24 -5 -14
-11 -14 -10 -2 6 16 20 18 21 27 5z m-159 -65 c0 -9 -4 -10 -14 -2 -7 6 -13
12 -13 14 0 1 6 2 13 2 8 0 14 -6 14 -14z m167 9 c3 -5 -1 -9 -9 -9 -8 0 -15
4 -15 9 0 10 17 10 24 0z m-370 -20 c3 -5 -1 -9 -9 -9 -8 0 -12 4 -9 9 3 4 7
8 9 8 2 0 6 -4 9 -8z m278 -3 c2 -2 1 -3 -1 -2 -2 2 -9 -2 -16 -7 -8 -7 -12
-5 -12 4 0 12 22 16 29 5z m-139 -34 c-3 -9 -8 -14 -10 -11 -3 3 -2 9 2 15 9
16 15 13 8 -4z m-1457 -20 c1 -8 -1 -17 -5 -19 -4 -3 -7 6 -7 19 0 25 8 25 12
0z m1040 13 c3 -4 -1 -5 -10 -4 -8 1 -18 5 -22 8 -3 4 1 5 10 4 8 -1 18 -5 22
-8z m150 0 c3 -4 -1 -5 -10 -4 -8 1 -18 5 -22 8 -3 4 1 5 10 4 8 -1 18 -5 22
-8z m39 2 c-3 -5 -12 -10 -18 -10 -7 0 -6 4 3 10 19 12 23 12 15 0z m172 -5
c0 -8 -4 -12 -9 -9 -5 3 -6 10 -3 15 9 13 12 11 12 -6z m-313 -13 c3 -5 -1 -9
-9 -9 -8 0 -15 4 -15 9 0 10 17 10 24 0z m33 -7 c0 -8 -4 -12 -9 -9 -5 3 -6
10 -3 15 9 13 12 11 12 -6z m203 11 c0 -2 -7 -7 -16 -10 -8 -3 -12 -2 -9 4 6
10 25 14 25 6z m-1190 -22 c0 -8 -19 -13 -24 -6 -3 5 1 9 9 9 8 0 15 -2 15 -3z
m480 0 c0 -8 -19 -13 -24 -6 -3 5 1 9 9 9 8 0 15 -2 15 -3z"/>
<path d="M4940 1079 c0 -5 5 -7 10 -4 6 3 10 8 10 11 0 2 -4 4 -10 4 -5 0 -10
-5 -10 -11z"/>
<path d="M1135 770 c3 -5 8 -10 11 -10 2 0 4 5 4 10 0 6 -5 10 -11 10 -5 0 -7
-4 -4 -10z"/>
</g>
</svg>
